o 
v 20.549999237060547 0 0
v 13.550000190734863 0 0
v 14.050000190734863 8.149999618530273 0
v 24.75 13 0
v 24.25 7.949999809265137 0
v 20.25 8.050000190734863 0
v 12.399999618530273 31.149999618530273 0
v 20.649999618530273 32.150001525878906 0
v 19.950000762939453 12.800000190734863 0
v 5.949999809265137 12.850000381469727 0
v 0.5 12.399999618530273 0
v 12.399999618530273 31.149999618530273 0
v 0.5 12.399999618530273 0
v 5.949999809265137 12.850000381469727 0
v 14.149999618530273 12.899999618530273 0
v 14.050000190734863 8.149999618530273 0
v 0.10000000149011612 8.100000381469727 0
v 0.5 12.399999618530273 0
v 20.25 8.050000190734863 0
v 20.549999237060547 0 0
v 14.050000190734863 8.149999618530273 0
v 19.950000762939453 12.800000190734863 0
v 24.75 13 0
v 20.25 8.050000190734863 0
v 13.899999618530273 25.700000762939453 0
v 5.949999809265137 12.850000381469727 0
v 12.399999618530273 31.149999618530273 0
v 14.050000190734863 8.149999618530273 0
v 0.5 12.399999618530273 0
v 14.149999618530273 12.899999618530273 0
v 19.950000762939453 12.800000190734863 0
v 20.25 8.050000190734863 0
v 14.050000190734863 8.149999618530273 0
v 13.899999618530273 25.700000762939453 0
v 12.399999618530273 31.149999618530273 0
v 19.950000762939453 12.800000190734863 0
v 19.950000762939453 12.800000190734863 0
v 14.050000190734863 8.149999618530273 0
v 14.149999618530273 12.899999618530273 0
v 14.149999618530273 12.899999618530273 0
v 13.899999618530273 25.700000762939453 0
v 19.950000762939453 12.800000190734863 0
v 14.050000190734863 8.149999618530273 7
v 13.550000190734863 0 7
v 20.549999237060547 0 7
v 20.25 8.050000190734863 7
v 24.25 7.949999809265137 7
v 24.75 13 7
v 19.950000762939453 12.800000190734863 7
v 20.649999618530273 32.150001525878906 7
v 12.399999618530273 31.149999618530273 7
v 12.399999618530273 31.149999618530273 7
v 0.5 12.399999618530273 7
v 5.949999809265137 12.850000381469727 7
v 14.149999618530273 12.899999618530273 7
v 5.949999809265137 12.850000381469727 7
v 0.5 12.399999618530273 7
v 0.5 12.399999618530273 7
v 0.10000000149011612 8.100000381469727 7
v 14.050000190734863 8.149999618530273 7
v 14.050000190734863 8.149999618530273 7
v 20.549999237060547 0 7
v 20.25 8.050000190734863 7
v 20.25 8.050000190734863 7
v 24.75 13 7
v 19.950000762939453 12.800000190734863 7
v 12.399999618530273 31.149999618530273 7
v 5.949999809265137 12.850000381469727 7
v 13.899999618530273 25.700000762939453 7
v 14.149999618530273 12.899999618530273 7
v 0.5 12.399999618530273 7
v 14.050000190734863 8.149999618530273 7
v 14.050000190734863 8.149999618530273 7
v 20.25 8.050000190734863 7
v 19.950000762939453 12.800000190734863 7
v 19.950000762939453 12.800000190734863 7
v 12.399999618530273 31.149999618530273 7
v 13.899999618530273 25.700000762939453 7
v 14.149999618530273 12.899999618530273 7
v 14.050000190734863 8.149999618530273 7
v 19.950000762939453 12.800000190734863 7
v 19.950000762939453 12.800000190734863 7
v 13.899999618530273 25.700000762939453 7
v 14.149999618530273 12.899999618530273 7
v 14.050000190734863 8.149999618530273 0
v 13.550000190734863 0 0
v 14.050000190734863 8.149999618530273 7
v 13.550000190734863 0 0
v 13.550000190734863 0 7
v 14.050000190734863 8.149999618530273 7
v 13.550000190734863 0 0
v 20.549999237060547 0 0
v 13.550000190734863 0 7
v 20.549999237060547 0 0
v 20.549999237060547 0 7
v 13.550000190734863 0 7
v 20.549999237060547 0 0
v 20.25 8.050000190734863 0
v 20.549999237060547 0 7
v 20.25 8.050000190734863 0
v 20.25 8.050000190734863 7
v 20.549999237060547 0 7
v 20.25 8.050000190734863 0
v 24.25 7.949999809265137 0
v 20.25 8.050000190734863 7
v 24.25 7.949999809265137 0
v 24.25 7.949999809265137 7
v 20.25 8.050000190734863 7
v 24.25 7.949999809265137 0
v 24.75 13 0
v 24.25 7.949999809265137 7
v 24.75 13 0
v 24.75 13 7
v 24.25 7.949999809265137 7
v 24.75 13 0
v 19.950000762939453 12.800000190734863 0
v 24.75 13 7
v 19.950000762939453 12.800000190734863 0
v 19.950000762939453 12.800000190734863 7
v 24.75 13 7
v 19.950000762939453 12.800000190734863 0
v 20.649999618530273 32.150001525878906 0
v 19.950000762939453 12.800000190734863 7
v 20.649999618530273 32.150001525878906 0
v 20.649999618530273 32.150001525878906 7
v 19.950000762939453 12.800000190734863 7
v 20.649999618530273 32.150001525878906 0
v 12.399999618530273 31.149999618530273 0
v 20.649999618530273 32.150001525878906 7
v 12.399999618530273 31.149999618530273 0
v 12.399999618530273 31.149999618530273 7
v 20.649999618530273 32.150001525878906 7
v 12.399999618530273 31.149999618530273 0
v 0.5 12.399999618530273 0
v 12.399999618530273 31.149999618530273 7
v 0.5 12.399999618530273 0
v 0.5 12.399999618530273 7
v 12.399999618530273 31.149999618530273 7
v 0.5 12.399999618530273 0
v 0.10000000149011612 8.100000381469727 0
v 0.5 12.399999618530273 7
v 0.10000000149011612 8.100000381469727 0
v 0.10000000149011612 8.100000381469727 7
v 0.5 12.399999618530273 7
v 0.10000000149011612 8.100000381469727 0
v 14.050000190734863 8.149999618530273 0
v 0.10000000149011612 8.100000381469727 7
v 14.050000190734863 8.149999618530273 0
v 14.050000190734863 8.149999618530273 7
v 0.10000000149011612 8.100000381469727 7
v 5.949999809265137 12.850000381469727 0
v 13.899999618530273 25.700000762939453 0
v 5.949999809265137 12.850000381469727 7
v 13.899999618530273 25.700000762939453 0
v 13.899999618530273 25.700000762939453 7
v 5.949999809265137 12.850000381469727 7
v 13.899999618530273 25.700000762939453 0
v 14.149999618530273 12.899999618530273 0
v 13.899999618530273 25.700000762939453 7
v 14.149999618530273 12.899999618530273 0
v 14.149999618530273 12.899999618530273 7
v 13.899999618530273 25.700000762939453 7
v 14.149999618530273 12.899999618530273 0
v 5.949999809265137 12.850000381469727 0
v 14.149999618530273 12.899999618530273 7
v 5.949999809265137 12.850000381469727 0
v 5.949999809265137 12.850000381469727 7
v 14.149999618530273 12.899999618530273 7
vt 20.549999237060547 0
vt 13.550000190734863 0
vt 14.050000190734863 8.149999618530273
vt 24.75 13
vt 24.25 7.949999809265137
vt 20.25 8.050000190734863
vt 12.399999618530273 31.149999618530273
vt 20.649999618530273 32.150001525878906
vt 19.950000762939453 12.800000190734863
vt 5.949999809265137 12.850000381469727
vt 0.5 12.399999618530273
vt 12.399999618530273 31.149999618530273
vt 0.5 12.399999618530273
vt 5.949999809265137 12.850000381469727
vt 14.149999618530273 12.899999618530273
vt 14.050000190734863 8.149999618530273
vt 0.10000000149011612 8.100000381469727
vt 0.5 12.399999618530273
vt 20.25 8.050000190734863
vt 20.549999237060547 0
vt 14.050000190734863 8.149999618530273
vt 19.950000762939453 12.800000190734863
vt 24.75 13
vt 20.25 8.050000190734863
vt 13.899999618530273 25.700000762939453
vt 5.949999809265137 12.850000381469727
vt 12.399999618530273 31.149999618530273
vt 14.050000190734863 8.149999618530273
vt 0.5 12.399999618530273
vt 14.149999618530273 12.899999618530273
vt 19.950000762939453 12.800000190734863
vt 20.25 8.050000190734863
vt 14.050000190734863 8.149999618530273
vt 13.899999618530273 25.700000762939453
vt 12.399999618530273 31.149999618530273
vt 19.950000762939453 12.800000190734863
vt 19.950000762939453 12.800000190734863
vt 14.050000190734863 8.149999618530273
vt 14.149999618530273 12.899999618530273
vt 14.149999618530273 12.899999618530273
vt 13.899999618530273 25.700000762939453
vt 19.950000762939453 12.800000190734863
vt 14.050000190734863 8.149999618530273
vt 13.550000190734863 0
vt 20.549999237060547 0
vt 20.25 8.050000190734863
vt 24.25 7.949999809265137
vt 24.75 13
vt 19.950000762939453 12.800000190734863
vt 20.649999618530273 32.150001525878906
vt 12.399999618530273 31.149999618530273
vt 12.399999618530273 31.149999618530273
vt 0.5 12.399999618530273
vt 5.949999809265137 12.850000381469727
vt 14.149999618530273 12.899999618530273
vt 5.949999809265137 12.850000381469727
vt 0.5 12.399999618530273
vt 0.5 12.399999618530273
vt 0.10000000149011612 8.100000381469727
vt 14.050000190734863 8.149999618530273
vt 14.050000190734863 8.149999618530273
vt 20.549999237060547 0
vt 20.25 8.050000190734863
vt 20.25 8.050000190734863
vt 24.75 13
vt 19.950000762939453 12.800000190734863
vt 12.399999618530273 31.149999618530273
vt 5.949999809265137 12.850000381469727
vt 13.899999618530273 25.700000762939453
vt 14.149999618530273 12.899999618530273
vt 0.5 12.399999618530273
vt 14.050000190734863 8.149999618530273
vt 14.050000190734863 8.149999618530273
vt 20.25 8.050000190734863
vt 19.950000762939453 12.800000190734863
vt 19.950000762939453 12.800000190734863
vt 12.399999618530273 31.149999618530273
vt 13.899999618530273 25.700000762939453
vt 14.149999618530273 12.899999618530273
vt 14.050000190734863 8.149999618530273
vt 19.950000762939453 12.800000190734863
vt 19.950000762939453 12.800000190734863
vt 13.899999618530273 25.700000762939453
vt 14.149999618530273 12.899999618530273
vt 8.149999618530273 1
vt 0 1
vt 8.149999618530273 -6
vt 0 1
vt 0 -6
vt 8.149999618530273 -6
vt 13.550000190734863 1
vt 20.549999237060547 1
vt 13.550000190734863 -6
vt 20.549999237060547 1
vt 20.549999237060547 -6
vt 13.550000190734863 -6
vt 0 1
vt 8.050000190734863 1
vt 0 -6
vt 8.050000190734863 1
vt 8.050000190734863 -6
vt 0 -6
vt 20.25 1
vt 24.25 1
vt 20.25 -6
vt 24.25 1
vt 24.25 -6
vt 20.25 -6
vt 7.949999809265137 1
vt 13 1
vt 7.949999809265137 -6
vt 13 1
vt 13 -6
vt 7.949999809265137 -6
vt 24.75 1
vt 19.950000762939453 1
vt 24.75 -6
vt 19.950000762939453 1
vt 19.950000762939453 -6
vt 24.75 -6
vt 12.800000190734863 1
vt 32.150001525878906 1
vt 12.800000190734863 -6
vt 32.150001525878906 1
vt 32.150001525878906 -6
vt 12.800000190734863 -6
vt 20.649999618530273 1
vt 12.399999618530273 1
vt 20.649999618530273 -6
vt 12.399999618530273 1
vt 12.399999618530273 -6
vt 20.649999618530273 -6
vt 31.149999618530273 1
vt 12.399999618530273 1
vt 31.149999618530273 -6
vt 12.399999618530273 1
vt 12.399999618530273 -6
vt 31.149999618530273 -6
vt 12.399999618530273 1
vt 8.100000381469727 1
vt 12.399999618530273 -6
vt 8.100000381469727 1
vt 8.100000381469727 -6
vt 12.399999618530273 -6
vt 0.10000000149011612 1
vt 14.050000190734863 1
vt 0.10000000149011612 -6
vt 14.050000190734863 1
vt 14.050000190734863 -6
vt 0.10000000149011612 -6
vt 12.850000381469727 1
vt 25.700000762939453 1
vt 12.850000381469727 -6
vt 25.700000762939453 1
vt 25.700000762939453 -6
vt 12.850000381469727 -6
vt 25.700000762939453 1
vt 12.899999618530273 1
vt 25.700000762939453 -6
vt 12.899999618530273 1
vt 12.899999618530273 -6
vt 25.700000762939453 -6
vt 14.149999618530273 1
vt 5.949999809265137 1
vt 14.149999618530273 -6
vt 5.949999809265137 1
vt 5.949999809265137 -6
vt 14.149999618530273 -6
vn 0 0 -1
vn 0 0 -1
vn 0 0 -1
vn 0 0 -1
vn 0 0 -1
vn 0 0 -1
vn 0 0 -1
vn 0 0 -1
vn 0 0 -1
vn 0 0 -1
vn 0 0 -1
vn 0 0 -1
vn 0 0 -1
vn 0 0 -1
vn 0 0 -1
vn 0 0 -1
vn 0 0 -1
vn 0 0 -1
vn 0 0 -1
vn 0 0 -1
vn 0 0 -1
vn 0 0 -1
vn 0 0 -1
vn 0 0 -1
vn 0 0 -1
vn 0 0 -1
vn 0 0 -1
vn 0 0 -1
vn 0 0 -1
vn 0 0 -1
vn 0 0 -1
vn 0 0 -1
vn 0 0 -1
vn 0 0 -1
vn 0 0 -1
vn 0 0 -1
vn 0 0 -1
vn 0 0 -1
vn 0 0 -1
vn 0 0 -1
vn 0 0 -1
vn 0 0 -1
vn 0 0 1
vn 0 0 1
vn 0 0 1
vn 0 0 1
vn 0 0 1
vn 0 0 1
vn 0 0 1
vn 0 0 1
vn 0 0 1
vn 0 0 1
vn 0 0 1
vn 0 0 1
vn 0 0 1
vn 0 0 1
vn 0 0 1
vn 0 0 1
vn 0 0 1
vn 0 0 1
vn 0 0 1
vn 0 0 1
vn 0 0 1
vn 0 0 1
vn 0 0 1
vn 0 0 1
vn 0 0 1
vn 0 0 1
vn 0 0 1
vn 0 0 1
vn 0 0 1
vn 0 0 1
vn 0 0 1
vn 0 0 1
vn 0 0 1
vn 0 0 1
vn 0 0 1
vn 0 0 1
vn 0 0 1
vn 0 0 1
vn 0 0 1
vn 0 0 1
vn 0 0 1
vn 0 0 1
vn -0.9981234028632942 0.061234570763566365 0
vn -0.9981234028632942 0.061234570763566365 0
vn -0.9981234028632942 0.061234570763566365 0
vn -0.9981234028632942 0.061234570763566365 0
vn -0.9981234028632942 0.061234570763566365 0
vn -0.9981234028632942 0.061234570763566365 0
vn 0 -1 0
vn 0 -1 0
vn 0 -1 0
vn 0 -1 0
vn 0 -1 0
vn 0 -1 0
vn 0.9993063084920201 0.03724113059577101 0
vn 0.9993063084920201 0.03724113059577101 0
vn 0.9993063084920201 0.03724113059577101 0
vn 0.9993063084920201 0.03724113059577101 0
vn 0.9993063084920201 0.03724113059577101 0
vn 0.9993063084920201 0.03724113059577101 0
vn -0.024992286468064548 -0.9996876440254218 0
vn -0.024992286468064548 -0.9996876440254218 0
vn -0.024992286468064548 -0.9996876440254218 0
vn -0.024992286468064548 -0.9996876440254218 0
vn -0.024992286468064548 -0.9996876440254218 0
vn -0.024992286468064548 -0.9996876440254218 0
vn 0.9951342654760627 -0.09852813646576952 0
vn 0.9951342654760627 -0.09852813646576952 0
vn 0.9951342654760627 -0.09852813646576952 0
vn 0.9951342654760627 -0.09852813646576952 0
vn 0.9951342654760627 -0.09852813646576952 0
vn 0.9951342654760627 -0.09852813646576952 0
vn -0.0416305112426746 0.9991330744869141 0
vn -0.0416305112426746 0.9991330744869141 0
vn -0.0416305112426746 0.9991330744869141 0
vn -0.0416305112426746 0.9991330744869141 0
vn -0.0416305112426746 0.9991330744869141 0
vn -0.0416305112426746 0.9991330744869141 0
vn 0.9993463027519426 -0.036152000996107825 0
vn 0.9993463027519426 -0.036152000996107825 0
vn 0.9993463027519426 -0.036152000996107825 0
vn 0.9993463027519426 -0.036152000996107825 0
vn 0.9993463027519426 -0.036152000996107825 0
vn 0.9993463027519426 -0.036152000996107825 0
vn -0.12033159024776241 0.9927337550362859 0
vn -0.12033159024776241 0.9927337550362859 0
vn -0.12033159024776241 0.9927337550362859 0
vn -0.12033159024776241 0.9927337550362859 0
vn -0.12033159024776241 0.9927337550362859 0
vn -0.12033159024776241 0.9927337550362859 0
vn -0.8443098470607578 0.5358552809819455 0
vn -0.8443098470607578 0.5358552809819455 0
vn -0.8443098470607578 0.5358552809819455 0
vn -0.8443098470607578 0.5358552809819455 0
vn -0.8443098470607578 0.5358552809819455 0
vn -0.8443098470607578 0.5358552809819455 0
vn -0.9957012145219603 0.09262338473351792 0
vn -0.9957012145219603 0.09262338473351792 0
vn -0.9957012145219603 0.09262338473351792 0
vn -0.9957012145219603 0.09262338473351792 0
vn -0.9957012145219603 0.09262338473351792 0
vn -0.9957012145219603 0.09262338473351792 0
vn 0.003584151672836924 -0.999993576907765 0
vn 0.003584151672836924 -0.999993576907765 0
vn 0.003584151672836924 -0.999993576907765 0
vn 0.003584151672836924 -0.999993576907765 0
vn 0.003584151672836924 -0.999993576907765 0
vn 0.003584151672836924 -0.999993576907765 0
vn 0.8504061686928096 -0.5261267416214621 0
vn 0.8504061686928096 -0.5261267416214621 0
vn 0.8504061686928096 -0.5261267416214621 0
vn 0.8504061686928096 -0.5261267416214621 0
vn 0.8504061686928096 -0.5261267416214621 0
vn 0.8504061686928096 -0.5261267416214621 0
vn -0.9998093197117881 -0.01952752461146765 0
vn -0.9998093197117881 -0.01952752461146765 0
vn -0.9998093197117881 -0.01952752461146765 0
vn -0.9998093197117881 -0.01952752461146765 0
vn -0.9998093197117881 -0.01952752461146765 0
vn -0.9998093197117881 -0.01952752461146765 0
vn -0.006097354972555793 0.9999814109583931 0
vn -0.006097354972555793 0.9999814109583931 0
vn -0.006097354972555793 0.9999814109583931 0
vn -0.006097354972555793 0.9999814109583931 0
vn -0.006097354972555793 0.9999814109583931 0
vn -0.006097354972555793 0.9999814109583931 0
f 1/1/1 2/2/2 3/3/3
f 4/4/4 5/5/5 6/6/6
f 7/7/7 8/8/8 9/9/9
f 10/10/10 11/11/11 12/12/12
f 13/13/13 14/14/14 15/15/15
f 16/16/16 17/17/17 18/18/18
f 19/19/19 20/20/20 21/21/21
f 22/22/22 23/23/23 24/24/24
f 25/25/25 26/26/26 27/27/27
f 28/28/28 29/29/29 30/30/30
f 31/31/31 32/32/32 33/33/33
f 34/34/34 35/35/35 36/36/36
f 37/37/37 38/38/38 39/39/39
f 40/40/40 41/41/41 42/42/42
f 43/43/43 44/44/44 45/45/45
f 46/46/46 47/47/47 48/48/48
f 49/49/49 50/50/50 51/51/51
f 52/52/52 53/53/53 54/54/54
f 55/55/55 56/56/56 57/57/57
f 58/58/58 59/59/59 60/60/60
f 61/61/61 62/62/62 63/63/63
f 64/64/64 65/65/65 66/66/66
f 67/67/67 68/68/68 69/69/69
f 70/70/70 71/71/71 72/72/72
f 73/73/73 74/74/74 75/75/75
f 76/76/76 77/77/77 78/78/78
f 79/79/79 80/80/80 81/81/81
f 82/82/82 83/83/83 84/84/84
f 85/85/85 86/86/86 87/87/87
f 88/88/88 89/89/89 90/90/90
f 91/91/91 92/92/92 93/93/93
f 94/94/94 95/95/95 96/96/96
f 97/97/97 98/98/98 99/99/99
f 100/100/100 101/101/101 102/102/102
f 103/103/103 104/104/104 105/105/105
f 106/106/106 107/107/107 108/108/108
f 109/109/109 110/110/110 111/111/111
f 112/112/112 113/113/113 114/114/114
f 115/115/115 116/116/116 117/117/117
f 118/118/118 119/119/119 120/120/120
f 121/121/121 122/122/122 123/123/123
f 124/124/124 125/125/125 126/126/126
f 127/127/127 128/128/128 129/129/129
f 130/130/130 131/131/131 132/132/132
f 133/133/133 134/134/134 135/135/135
f 136/136/136 137/137/137 138/138/138
f 139/139/139 140/140/140 141/141/141
f 142/142/142 143/143/143 144/144/144
f 145/145/145 146/146/146 147/147/147
f 148/148/148 149/149/149 150/150/150
f 151/151/151 152/152/152 153/153/153
f 154/154/154 155/155/155 156/156/156
f 157/157/157 158/158/158 159/159/159
f 160/160/160 161/161/161 162/162/162
f 163/163/163 164/164/164 165/165/165
f 166/166/166 167/167/167 168/168/168
